<?xml version="1.0" encoding="utf-8"?>
<!-- Generator: Adobe Illustrator 24.0.3, SVG Export Plug-In . SVG Version: 6.00 Build 0)  -->
<svg version="1.0" id="Layer_1" xmlns="http://www.w3.org/2000/svg" xmlns:xlink="http://www.w3.org/1999/xlink" x="0px" y="0px"
	 viewBox="0 0 41.85 39.99" style="enable-background:new 0 0 41.85 39.99;" xml:space="preserve">
<style type="text/css">
	.st0{fill:#FFFFFF;}
</style>
<g>
	<path class="st0" d="M41.85,24.52v15.47h-8.97V25.56c0-3.63-1.3-6.1-4.54-6.1c-2.07,0.01-3.92,1.33-4.6,3.28
		c-0.23,0.71-0.33,1.45-0.3,2.19V40h-8.97c0,0,0.12-24.45,0-26.99h8.97v3.83c-0.02,0.03-0.04,0.06-0.06,0.09h0.06v-0.09
		c1.65-2.88,4.77-4.59,8.09-4.46C37.42,12.37,41.85,16.23,41.85,24.52L41.85,24.52z M5.08,0C2.01,0,0,2.01,0,4.66
		c-0.02,2.57,2.05,4.66,4.62,4.68c0.11,0,0.23,0,0.34-0.01h0.06c3.13,0,5.08-2.07,5.08-4.66C10.11,2.1,8.03,0,5.45,0
		C5.32-0.01,5.2-0.01,5.08,0z M0.53,39.99H9.5V13.01H0.53V39.99z"/>
</g>
</svg>
