<svg xmlns="http://www.w3.org/2000/svg" viewBox="0 0 52.782 37.935"><g data-name="Layer 2"><path d="M52.782 17.497a12.348 12.348 0 0 1-5.98-.632c2.967-.256 4.975-1.661 5.749-3.568-1.07.685-4.39 1.432-6.221.721-.091-.45-.19-.876-.291-1.263-1.395-5.35-6.178-9.661-11.187-9.14.404-.17.813-.33 1.228-.474.548-.206 3.785-.756 3.276-1.946-.431-1.05-4.386.789-5.13 1.03.983-.384 2.61-1.046 2.782-2.225a7.71 7.71 0 0 0-4.125 2.038 2.995 2.995 0 0 0 .792-1.635c-4.017 2.678-6.363 8.072-8.261 13.31a19.922 19.922 0 0 0-3.998-3.357A102.56 102.56 0 0 0 7.874 4.139c-.192 2.153 1.02 5.02 4.512 6.923a10.643 10.643 0 0 0-3.243.407c.45 2.47 1.921 4.502 5.909 5.484a4.739 4.739 0 0 0-3.618 1.49 6.071 6.071 0 0 0 6.498 3.322c-4.052 1.823-1.653 5.197 1.645 4.693A13.585 13.585 0 0 1 0 27.004c13.289 18.894 42.18 11.172 46.484-7.026a7.832 7.832 0 0 0 6.298-2.48z" fill="#166d9e" data-name="Layer 1"/></g></svg>