<svg xmlns="http://www.w3.org/2000/svg" viewBox="0 0 41.851 39.991"><g data-name="Layer 2"><path d="M41.851 24.519V39.99h-8.97V25.555c0-3.627-1.297-6.102-4.544-6.102a4.908 4.908 0 0 0-4.603 3.282 6.138 6.138 0 0 0-.297 2.187v15.07h-8.973s.12-24.451 0-26.985h8.972v3.825c-.018.029-.042.06-.06.087h.06v-.087a8.909 8.909 0 0 1 8.086-4.458c5.903 0 10.33 3.856 10.33 12.145zM5.077 0C2.007 0 0 2.013 0 4.661a4.648 4.648 0 0 0 4.958 4.665h.06c3.13 0 5.075-2.074 5.075-4.665A4.66 4.66 0 0 0 5.077 0zM.533 39.991h8.97V13.007H.533z" fill="#166d9e" data-name="Layer 1"/></g></svg>