<?xml version="1.0" encoding="utf-8"?>
<!-- Generator: Adobe Illustrator 22.1.0, SVG Export Plug-In . SVG Version: 6.00 Build 0)  -->
<svg version="1.1" id="Layer_1" xmlns="http://www.w3.org/2000/svg" xmlns:xlink="http://www.w3.org/1999/xlink" x="0px" y="0px"
	 viewBox="0 0 284.6 99.8" style="enable-background:new 0 0 284.6 99.8;" xml:space="preserve">
<style type="text/css">
	.st0{fill:#FFFFFF;}
</style>
<g>
	<polygon class="st0" points="259.9,11.9 262.5,24.6 269.7,21.2 266.3,28.3 280.3,31 266.3,33.7 269.7,40.8 262.5,37.4 259.9,51.3 
		257.2,37.4 250.1,40.8 253.5,33.7 238.7,31 253.5,28.3 250.1,21.2 257.2,24.6 	"/>
	<g>
		<path class="st0" d="M33,42.5c-4.8,0-11.1-2.1-15.5-3.8l2-8.5c3.6,1.1,9.4,3,13,3c1.3,0,4.3-0.1,4.3-2c0-4.5-19.5-0.1-19.5-14.9
			c0-8.6,8.6-11.7,15.8-11.7C37.8,4.6,43.2,6,47.6,8l-1.8,8.2c-3.9-1.2-8.6-2.4-12.6-2.4c-1.2,0-4.4,0.1-4.4,2
			c0,1.7,4.7,2.2,5.9,2.4c7.7,1.4,14.3,3.5,14.3,12.6C48.9,39.3,40.3,42.5,33,42.5z"/>
		<path class="st0" d="M66.4,41.9H54.7V5.2h11.7V41.9z"/>
		<path class="st0" d="M100.9,41.9H73.6V5.2h27.4v9.2H85.3v4.3h13.2v8.7H85.3v5.2h15.6V41.9z"/>
		<path class="st0" d="M140.8,32.8c-3,6.6-9.6,9.7-16.6,9.7c-11.7,0-19.4-7.1-19.4-18.9c0-11.9,7.7-19,19.4-19
			c7,0,13.6,3.1,16.6,9.6l-9.1,4.2c-1.4-3-4.4-4.3-7.5-4.3c-5.7,0-7.4,4.5-7.4,9.5c0,4.9,1.7,9.4,7.4,9.4c3.3,0,6.2-1.3,7.6-4.4
			L140.8,32.8z"/>
		<path class="st0" d="M179.3,26.9c0,10.4-7.3,15.6-17.2,15.6c-9.8,0-17.2-5.2-17.2-15.6V5.3h11.7v20.6c0,3.4,1.4,7.4,5.5,7.4
			c4.1,0,5.5-4.1,5.5-7.4V5.3h11.7V26.9z"/>
		<path class="st0" d="M200.8,42.5c-4.8,0-11.1-2.1-15.5-3.8l2-8.5c3.6,1.1,9.4,3,13,3c1.3,0,4.3-0.1,4.3-2
			c0-4.5-19.5-0.1-19.5-14.9c0-8.6,8.6-11.7,15.8-11.7c4.8,0,10.1,1.4,14.5,3.4l-1.8,8.2c-3.9-1.2-8.6-2.4-12.6-2.4
			c-1.2,0-4.4,0.1-4.4,2c0,1.7,4.7,2.2,5.9,2.4c7.7,1.4,14.3,3.5,14.3,12.6C216.7,39.3,208.1,42.5,200.8,42.5z"/>
	</g>
	<path class="st0" d="M22,49.9c-0.3,0-1.5-0.2-1.5-0.6c0-0.5,0.8-0.5,1.1-0.5c1,0,2.2,0.3,3.2,0.6l0.5-2.1c-1.1-0.5-2.5-0.8-3.7-0.8
		c-1.8,0-4,0.8-4,3c0,3.7,4.9,2.6,4.9,3.7c0,0.5-0.7,0.5-1.1,0.5c-0.9,0-2.4-0.5-3.3-0.7l-0.5,2.1c1.1,0.4,2.7,1,3.9,1
		c1.8,0,4-0.8,4-3C25.6,50.8,23.9,50.2,22,49.9z"/>
	<polygon class="st0" points="26.8,55.8 33.7,55.8 33.7,53.5 29.8,53.5 29.8,52.2 33.1,52.2 33.1,50 29.8,50 29.8,48.9 33.7,48.9 
		33.7,46.6 26.8,46.6 	"/>
	<polygon class="st0" points="44.7,46.6 41.3,46.6 39.6,49 38,46.6 34.5,46.6 37.8,51.2 34.5,55.8 37.9,55.8 39.6,53.5 41.3,55.8 
		44.7,55.8 41.5,51.2 	"/>
	<polygon class="st0" points="49.1,55.8 56,55.8 56,53.5 52,53.5 52,52.2 55.3,52.2 55.3,50 52,50 52,48.9 56,48.9 56,46.6 
		49.1,46.6 	"/>
	<path class="st0" d="M61,46.6h-3.9v9.2H61c2.9,0,4.6-1.7,4.6-4.6C65.6,48.3,63.9,46.6,61,46.6z M61,53.5h-0.9v-4.6H61
		c1.4,0,1.7,1.1,1.7,2.3C62.7,52.4,62.4,53.5,61,53.5z"/>
	<polygon class="st0" points="69.5,55.8 72.5,55.8 72.5,52.2 75.8,52.2 75.8,50 72.5,50 72.5,48.9 76.4,48.9 76.4,46.6 69.5,46.6 	
		"/>
	<path class="st0" d="M81.9,46.5c-2.9,0-4.9,1.8-4.9,4.8c0,3,1.9,4.8,4.9,4.8c2.9,0,4.9-1.8,4.9-4.8C86.7,48.3,84.8,46.5,81.9,46.5z
		 M81.9,53.6c-1.4,0-1.9-1.1-1.9-2.4c0-1.2,0.4-2.4,1.9-2.4c1.4,0,1.9,1.1,1.9,2.4C83.7,52.5,83.3,53.6,81.9,53.6z"/>
	<path class="st0" d="M96.2,49.5c0-2-1.5-2.9-3.4-2.9h-4.7v9.2H91v-3.5h0.4l1.9,3.5h3.1l-2.2-3.7C95.5,51.8,96.2,50.8,96.2,49.5z
		 M92.4,50.2H91v-1.2h1.5c0.3,0,0.7,0.1,0.7,0.6C93.2,50.1,92.8,50.2,92.4,50.2z"/>
	<path class="st0" d="M105.6,49.9c-0.3,0-1.5-0.2-1.5-0.6c0-0.5,0.8-0.5,1.1-0.5c1,0,2.2,0.3,3.2,0.6l0.5-2.1
		c-1.1-0.5-2.5-0.8-3.7-0.8c-1.8,0-4,0.8-4,3c0,3.7,4.9,2.6,4.9,3.7c0,0.5-0.7,0.5-1.1,0.5c-0.9,0-2.4-0.5-3.3-0.7l-0.5,2.1
		c1.1,0.4,2.7,1,3.9,1c1.8,0,4-0.8,4-3C109.2,50.8,107.5,50.2,105.6,49.9z"/>
	<path class="st0" d="M115,46.5c-2.9,0-4.9,1.8-4.9,4.8c0,3,1.9,4.8,4.9,4.8c2.9,0,4.9-1.8,4.9-4.8C119.8,48.3,117.9,46.5,115,46.5z
		 M115,53.6c-1.4,0-1.9-1.1-1.9-2.4c0-1.2,0.4-2.4,1.9-2.4c1.4,0,1.9,1.1,1.9,2.4C116.8,52.5,116.4,53.6,115,53.6z"/>
	<path class="st0" d="M125.9,53.6c-1.4,0-1.9-1.1-1.9-2.4c0-1.2,0.4-2.4,1.9-2.4c0.8,0,1.5,0.3,1.9,1.1l2.3-1
		c-0.8-1.6-2.4-2.4-4.2-2.4c-2.9,0-4.9,1.8-4.9,4.8c0,3,1.9,4.8,4.9,4.8c1.8,0,3.4-0.8,4.2-2.5l-2.3-1
		C127.5,53.3,126.7,53.6,125.9,53.6z"/>
	<rect x="131" y="46.6" class="st0" width="2.9" height="9.2"/>
	<path class="st0" d="M138.6,46.6l-3.5,9.2h2.9l0.4-1.2h3.2l0.4,1.2h2.9l-3.5-9.2H138.6z M139.2,52.5l0.9-2.5l0.9,2.5H139.2z"/>
	<polygon class="st0" points="148.7,46.6 145.8,46.6 145.8,55.8 152.6,55.8 152.6,53.5 148.7,53.5 	"/>
	<path class="st0" d="M161.6,53.6c-1.4,0-1.9-1.1-1.9-2.4c0-1.2,0.4-2.4,1.9-2.4c0.8,0,1.5,0.3,1.9,1.1l2.3-1
		c-0.8-1.6-2.4-2.4-4.2-2.4c-2.9,0-4.9,1.8-4.9,4.8c0,3,1.9,4.8,4.9,4.8c1.8,0,3.4-0.8,4.2-2.5l-2.3-1
		C163.2,53.3,162.4,53.6,161.6,53.6z"/>
	<polygon class="st0" points="172.6,50 169.7,50 169.7,46.6 166.7,46.6 166.7,55.8 169.7,55.8 169.7,52.2 172.6,52.2 172.6,55.8 
		175.6,55.8 175.6,46.6 172.6,46.6 	"/>
	<path class="st0" d="M180.2,46.6l-3.5,9.2h2.9l0.4-1.2h3.2l0.4,1.2h2.9l-3.5-9.2H180.2z M180.8,52.5l0.9-2.5l0.9,2.5H180.8z"/>
	<polygon class="st0" points="193.7,51.5 190.5,46.6 187.4,46.6 187.4,55.8 190.3,55.8 190.3,51 193.5,55.8 196.6,55.8 196.6,46.6 
		193.7,46.6 	"/>
	<path class="st0" d="M203,52.5h1.1v0.4c-0.4,0.4-1,0.7-1.6,0.7c-1.4,0-1.9-1.1-1.9-2.4s0.4-2.4,1.9-2.4c0.6,0,1.3,0.2,1.7,0.7
		l2.2-1.2c-0.8-1.3-2.4-1.9-3.9-1.9c-2.9,0-4.9,1.8-4.9,4.8c0,3,1.9,4.8,4.9,4.8c0.7,0,1.4-0.4,2-0.8l0.3,0.6h2.2v-5.4H203V52.5z"/>
	<polygon class="st0" points="215.6,48.9 215.6,46.6 208.7,46.6 208.7,55.8 215.6,55.8 215.6,53.5 211.6,53.5 211.6,52.2 
		214.9,52.2 214.9,50 211.6,50 211.6,48.9 	"/>
	<path class="st0" d="M12.7,39.7c-1.6,2.6-2.9,5.2-3.9,8c-1,2.8-1.7,5.6-1.9,8.4c-0.2,2.8,0.1,5.6,1,8.1c0.9,2.5,2.4,4.8,4.3,6.6
		c0.9,0.9,2,1.8,3.1,2.6c0.5,0.4,1.1,0.8,1.7,1.1c0.6,0.3,1.2,0.7,1.8,1c2.4,1.3,5,2.3,7.7,3.2c5.4,1.7,11.1,2.8,16.8,3.6
		c1.4,0.2,2.9,0.3,4.3,0.5c1.5,0.1,2.9,0.3,4.4,0.4c2.9,0.2,5.8,0.4,8.7,0.5c2.9,0.1,5.9,0.2,8.9,0.2c3,0.1,5.9,0.1,8.9,0.1
		c5.9,0,11.8-0.1,17.7-0.3c2.9-0.1,5.9-0.2,8.8-0.4c2.9-0.2,5.9-0.3,8.8-0.6c23.5-1.7,46.9-5.2,69.5-11.5
		c22.6-6.3,44.6-15.5,64.1-29.5c-4.1,4.4-8.6,8.4-13.4,12.1c-2.4,1.9-4.8,3.6-7.4,5.3c-2.5,1.7-5.1,3.3-7.7,4.9
		c-10.5,6.2-21.6,11.2-33.1,15.2c-5.7,2-11.6,3.8-17.4,5.4c-2.9,0.8-5.9,1.5-8.9,2.2c-3,0.7-5.9,1.3-8.9,1.9c-6,1.2-12,2.1-18,2.9
		c-6,0.7-12.1,1.4-18.1,1.8c-6,0.4-12.1,0.7-18.2,0.8c-3,0-6.1,0.1-9.1,0c-3,0-6.1-0.1-9.1-0.2c-6-0.2-12.1-0.5-18.1-1.1
		c-6.1-0.5-12.2-1.3-18.2-2.5c-3-0.6-6-1.3-9-2.2c-3-0.9-6-1.9-8.9-3.1c-2.9-1.2-5.8-2.7-8.4-4.5c-0.7-0.4-1.3-0.9-2-1.4
		c-0.6-0.5-1.3-1-1.9-1.6c-1.2-1.1-2.4-2.3-3.4-3.6c-2.1-2.6-3.6-5.7-4.3-8.9c-0.7-3.3-0.6-6.6,0.1-9.7c0.7-3.1,1.9-6,3.3-8.7
		c0.8-1.3,1.6-2.6,2.5-3.8C10.7,42,11.7,40.8,12.7,39.7z"/>
</g>
</svg>
