<?xml version="1.0" encoding="utf-8"?>
<!-- Generator: Adobe Illustrator 24.0.3, SVG Export Plug-In . SVG Version: 6.00 Build 0)  -->
<svg version="1.0" id="Layer_1" xmlns="http://www.w3.org/2000/svg" xmlns:xlink="http://www.w3.org/1999/xlink" x="0px" y="0px"
	 viewBox="0 0 100 100" style="enable-background:new 0 0 100 100;" xml:space="preserve">
<style type="text/css">
	.st0{fill:#166D9E;}
</style>
<path class="st0" d="M44.5,69.9c-14.4,0-26.1-11.7-26.1-26.1s11.7-26.1,26.1-26.1s26.1,11.7,26.1,26.1S58.9,69.9,44.5,69.9z
	 M75.5,67.2c4.9-6.5,7.9-14.6,7.9-23.4C83.4,22.4,65.9,5,44.5,5S5.7,22.4,5.7,43.8s17.4,38.8,38.8,38.8c8,0,15.5-2.5,21.7-6.7
	c0.1,0.1,0.1,0.1,0.2,0.2l17,17c1.2,1.2,2.9,1.9,4.5,1.9s3.3-0.6,4.5-1.9c2.5-2.5,2.5-6.5,0-9L75.5,67.2z"/>
</svg>
