<?xml version="1.0" encoding="utf-8"?>
<!-- Generator: Adobe Illustrator 24.0.3, SVG Export Plug-In . SVG Version: 6.00 Build 0)  -->
<svg version="1.0" id="Capa_1" xmlns="http://www.w3.org/2000/svg" xmlns:xlink="http://www.w3.org/1999/xlink" x="0px" y="0px"
	 viewBox="0 0 430.12 307.12" style="enable-background:new 0 0 430.12 307.12;" xml:space="preserve">
<style type="text/css">
	.st0{fill:#166D9E;}
</style>
<g>
	<path id="Twitter__x28_alt_x29_" class="st0" d="M381.38,137.64c24.16-1.99,40.54-12.98,46.85-27.88
		c-8.71,5.35-35.76,11.19-50.7,5.63c-0.73-3.51-1.55-6.84-2.35-9.85c-11.38-41.8-50.36-75.47-91.19-71.4c3.3-1.33,6.65-2.58,10-3.69
		c4.49-1.61,30.87-5.9,26.71-15.21c-3.5-8.19-35.72,6.19-41.79,8.07c8.01-3.01,21.25-8.19,22.67-17.4
		c-12.27,1.68-24.32,7.48-33.62,15.92c3.36-3.62,5.91-8.03,6.45-12.77C241.68,29.96,222.56,72.11,207.09,113
		c-12.15-11.77-22.91-21.04-32.57-26.19c-27.1-14.53-59.5-29.69-110.36-48.57c-1.56,16.83,8.32,39.2,36.8,54.08
		c-6.17-0.83-17.45,1.02-26.48,3.18c3.68,19.28,15.68,35.16,48.17,42.84c-14.85,0.98-22.52,4.36-29.48,11.64
		c6.76,13.41,23.27,29.19,52.95,25.95c-33.01,14.23-13.46,40.57,13.4,36.64C113.71,259.89,41.48,256.41,0,216.83
		c108.3,147.57,343.72,87.27,378.8-54.87c26.29,0.22,41.74-9.1,51.32-19.39C414.97,145.14,393.02,142.49,381.38,137.64z"/>
</g>
</svg>
