<?xml version="1.0" encoding="utf-8"?>
<!-- Generator: Adobe Illustrator 24.0.3, SVG Export Plug-In . SVG Version: 6.00 Build 0)  -->
<svg version="1.1" xmlns="http://www.w3.org/2000/svg" xmlns:xlink="http://www.w3.org/1999/xlink" x="0px" y="0px"
	 viewBox="0 0 980.3 183" style="enable-background:new 0 0 980.3 183;" xml:space="preserve">
<style type="text/css">
	.st0{display:none;}
	.st1{display:inline;}
	.st2{fill:#FFFFFF;}
	.st3{fill:#B3B3B3;}
</style>
<g id="Layer_2" class="st0">
	<rect x="-67.7" y="-427.1" class="st1" width="1133.6" height="1120.9"/>
</g>
<g id="Layer_1">
	<g>
		<path class="st2" d="M835,84.6c-0.9-9.1,0-17.9,4.9-25.9c5.3-8.7,13.3-13.8,22.8-16.8c9.7-3.1,19.7-3.5,29.8-2.4
			c8.3,0.9,16.3,3.1,23.4,7.7c2.8,1.8,5.2,4.2,7.7,6.3c-5.4,3-10.7,6.2-16.3,8.8c-6.9,3.2-14,5.9-21,8.8c-3.9-1.6-7.1-0.5-8.6,3
			c-1.4,2.8-0.3,6.8,2.1,8.3c3.3,3.1,7.5,4.7,11.5,6.4c6.7,2.8,13.5,5.4,20.1,8.3c5.6,2.5,10.7,5.8,15.1,10.2c5.9,5.9,9,13,9.3,21.2
			c0.4,13.1-3.9,24.2-14.3,32.6c-6.3,5-13.6,7.9-21.4,9.2c-13.3,2.2-26.5,1.3-39.1-3.8c-17.7-7.1-25.8-21.9-26.5-37.7
			c13.9,0,27.8,0,41.9,0c0.2,1.1,0.3,2.2,0.6,3.3c1.3,5.9,5.8,8.8,11.7,7.4c4.5-1,6.6-5.6,4.1-9.5c-1.1-1.8-2.9-3.4-4.7-4.4
			c-4-2.1-8.2-3.8-12.4-5.4c-7.3-2.8-14.8-5.3-21.6-9.2c-6.7-3.9-12.3-8.8-15.9-15.9C837,91.7,836,88.1,835,84.6z"/>
		<path class="st2" d="M688.6,82.8c0-1.7,0.1-3.5,0.1-5.2c0-11.1,0-22.2,0-33.2c0-1.3,0.4-1.7,1.7-1.7c14.4,0,28.7,0,43.5,0
			c-0.9,0.5-1.5,0.9-2,1.2c-11.1,5.8-19.6,14.1-24.3,25.9c-2.4,6-2.9,12.3-1.2,18.6c0.7,3.7,2.2,7,4.6,10c3.5,4.9,8,8.6,13.5,10.8
			c4.6,1.9,9.4,3.1,14.1,4.6c1.9,0.6,2,0.8,0.9,2.6c-2.9,4.6-5.8,9.2-8.8,13.8c-1.2,1.8-1.2,3.7-0.8,5.7c0.2,1,0.8,1.2,1.7,0.8
			c0.4-0.2,0.8-0.5,1.2-0.8c6.9-5.4,13.9-10.8,20.8-16.2c1.9-1.5,4-2.5,6.5-2.9c4.1-0.8,8.2-1.5,12.1-2.6c7.8-2.3,14.8-6,20.3-12.3
			c5.7-0.6,11.5-1.1,17.2-1.8c4.2-0.5,8.3-1.1,12.4-1.6c0,8.1,0.1,16.2,0,24.2c-0.2,21.8-12.2,37.8-33.1,44.3
			c-8,2.5-16.3,3.7-24.6,4.1c-12.9,0.6-25.7,0.2-38.2-2.9c-12.6-3.2-23.3-9.2-30.5-20.5c-5.2-8.2-7-17.3-7-26.9c0-9.4,0-18.9,0-28.3
			c0-0.8,0-1.5-0.1-2.3C688.6,87.7,688.6,85.2,688.6,82.8z"/>
		<path class="st3" d="M711,98.3c-2.4-2.9-3.9-6.3-4.6-10c11.9,2.3,24,2.8,36.1,3c18.6,0.4,37.2-0.3,55.7-1.8c0.3,0,0.6-0.1,1-0.1
			c7.7-0.9,15.3-1.8,23-2.6c4.3-0.7,8.6-1.4,12.9-2.1c1,3.6,2.1,7.1,3.1,10.7c-5.3,1-10.6,2.1-15.9,3.1c-4.1,0.5-8.3,1.1-12.4,1.6
			c-5.7,0.6-11.5,1.2-17.2,1.8c-5.2,0.2-10.4,0.6-15.5,0.7c-15.7,0.5-31.4,0.1-47.1-1.4C723.5,100.4,717.3,99.2,711,98.3z"/>
		<path class="st2" d="M822.1,86.7c-7.7,0.9-15.3,1.8-23,2.6c3-13.1,0.6-25.2-6.8-36.3c-2.5-3.8-5.8-7-8.5-10.3
			c12.4,0,25.2,0,38.2,0C822.1,57.5,822.1,72.1,822.1,86.7z"/>
		<path class="st2" d="M925.3,55.5c5.9,7.3,8.3,15.8,8.8,25.1c-14.2,0-28.3,0-42.5,0c-0.2-1.1-0.3-2.1-0.5-3.2
			c5.1-2.8,10.3-5.3,15.1-8.4C912.8,64.7,919,60,925.3,55.5z"/>
		<path class="st3" d="M945.9,27.2c1-4.5,1.9-8.8,2.8-13.1c0.1,0,0.2,0,0.2,0c0.9,4.3,1.8,8.6,2.8,13.1c2.5-1.2,5-2.3,7.7-3.6
			c-1.3,2.7-2.4,5.1-3.6,7.7c4.9,0.9,9.7,1.9,14.4,2.8c0,0.1,0,0.2,0,0.3c-4.7,0.9-9.5,1.8-14.4,2.8c1.2,2.5,2.3,4.9,3.6,7.7
			c-2.7-1.3-5.1-2.4-7.7-3.6c-0.9,4.8-1.9,9.5-2.8,14.3c-0.1,0-0.2,0-0.3,0c-0.9-4.7-1.8-9.4-2.8-14.3c-2.5,1.2-4.9,2.3-7.7,3.6
			c1.3-2.8,2.4-5.2,3.6-7.7c-5.2-0.9-10.2-1.8-15.2-2.8c0-0.1,0-0.2,0-0.3c5-0.9,10-1.8,15.3-2.8c-1.2-2.5-2.3-5-3.6-7.7
			C940.9,24.9,943.3,26,945.9,27.2z"/>
		<path class="st3" d="M925.3,55.5C919,60,912.8,64.7,906.3,69c-4.8,3.1-10.1,5.6-15.1,8.4c-3.8,1.7-7.6,3.4-11.4,5.1
			c-2.4-1.5-3.6-5.6-2.1-8.3c2.9-1,5.7-2,8.6-3c7-2.9,14.2-5.6,21-8.8c5.6-2.6,10.9-5.9,16.3-8.8c2.9-1.8,5.9-3.6,8.8-5.4
			c0.1,0.2,0.3,0.3,0.4,0.5C930.3,50.9,927.8,53.2,925.3,55.5z"/>
		<path class="st3" d="M688.6,82.8c0,2.4,0,4.9,0,7.3c-0.2,0-0.4,0.1-0.6,0c-7.3-4-13.3-9.2-15.8-17.5c-2.2-7.5-0.3-14.5,3.4-21.1
			c1.1-2,2.5-3.8,3.7-5.7c0.2,0.1,0.3,0.1,0.5,0.2c-0.2,0.5-0.3,1.1-0.6,1.6c-2.1,4.3-3.6,8.8-4,13.6c-0.7,8.5,3,14.9,10,19.4
			C686.4,81.4,687.5,82.1,688.6,82.8z"/>
	</g>
	<g>
		<path class="st2" d="M55.5,168.5c-14.8,0-26.3-3.9-34.6-11.8c-8.2-7.9-12.3-19.1-12.3-33.7c0-15,3.8-26.6,11.4-34.6
			c7.6-8,18.4-12.1,32.5-12.1c13.4,0,23.8,3.5,31.1,10.5c7.3,7,11,17.1,11,30.2v13.7h-55c0.2,5,2,8.9,5.5,11.7
			c3.4,2.8,8.1,4.2,14,4.2c5.4,0,10.4-0.5,14.9-1.5c4.5-1,9.4-2.8,14.7-5.2v22.1c-4.8,2.5-9.8,4.2-14.9,5.1
			C68.8,168,62.6,168.5,55.5,168.5z M53.7,97.2c-3.6,0-6.6,1.1-9.1,3.4c-2.4,2.3-3.9,5.9-4.3,10.7h26.4c-0.1-4.3-1.3-7.7-3.7-10.3
			C60.8,98.5,57.6,97.2,53.7,97.2z"/>
		<path class="st2" d="M140,168.5c-6.3,0-11.9-1.8-16.6-5.4c-4.7-3.6-8.4-8.9-11-16c-2.6-7-3.9-15.2-3.9-24.6
			c0-14.5,2.9-25.8,8.7-34s13.8-12.3,24-12.3c5,0,9.3,1,13.1,3c3.7,2,7.2,5.3,10.3,10.1h0.6c-1-7-1.5-13.9-1.5-20.9V44.6h31v122.3
			h-23.2l-6.6-11.2h-1.2C158.3,164.2,150.4,168.5,140,168.5z M152.5,144.2c4.9,0,8.4-1.5,10.4-4.6c2-3.1,3.1-7.9,3.3-14.3v-2.4
			c0-7.9-1.1-13.5-3.4-16.8c-2.3-3.3-5.8-5-10.6-5c-4,0-7.2,1.9-9.4,5.7c-2.2,3.8-3.3,9.2-3.3,16.2c0,6.9,1.1,12.2,3.4,15.8
			C145.1,142.4,148.3,144.2,152.5,144.2z"/>
		<path class="st2" d="M279.5,166.9l-3.9-11.1h-1.8c-2.6,4.1-6.1,7.2-10.7,9.4c-4.6,2.2-10,3.3-16.2,3.3c-9.8,0-17.4-2.8-22.9-8.5
			c-5.5-5.7-8.2-13.7-8.2-24.1v-58h30.7v48.7c0,5.8,0.8,10.2,2.5,13.2c1.7,3,4.4,4.5,8.1,4.5c5.3,0,9.1-2.1,11.3-6.2
			c2.3-4.2,3.4-11.2,3.4-21.1v-39h30.7v89.1H279.5z"/>
		<path class="st2" d="M364.8,168.5c-14.6,0-25.6-3.9-33.1-11.8c-7.5-7.9-11.3-19.2-11.3-33.9c0-14.8,4.1-26.2,12.2-34.4
			c8.1-8.1,19.7-12.2,34.7-12.2c10.3,0,20,2.3,29.2,6.8l-9,22.7c-3.7-1.6-7.2-2.9-10.3-3.9c-3.1-1-6.4-1.5-9.8-1.5
			c-5,0-8.8,1.9-11.6,5.8c-2.7,3.9-4.1,9.4-4.1,16.4c0,14.3,5.3,21.4,15.8,21.4c9,0,17.7-2.6,25.9-7.9v24.4
			C385.4,165.9,375.9,168.5,364.8,168.5z"/>
		<path class="st2" d="M469.4,166.9l-5.9-11.8h-0.6c-4.1,5.1-8.4,8.6-12.7,10.5c-4.3,1.9-9.9,2.8-16.7,2.8c-8.4,0-15-2.5-19.8-7.5
			c-4.8-5-7.2-12.1-7.2-21.2c0-9.5,3.3-16.5,9.9-21.2c6.6-4.6,16.2-7.2,28.7-7.8l14.9-0.5V109c0-7.3-3.6-11-10.8-11
			c-6.5,0-14.8,2.2-24.8,6.6l-8.9-20.3c10.4-5.3,23.5-8,39.3-8c11.4,0,20.3,2.8,26.5,8.5c6.3,5.7,9.4,13.6,9.4,23.7v58.4H469.4z
			 M446.6,146.8c3.7,0,6.9-1.2,9.6-3.5c2.6-2.4,4-5.4,4-9.2v-6.9l-7.1,0.3c-10.1,0.4-15.2,4.1-15.2,11.2
			C437.8,144.1,440.7,146.8,446.6,146.8z"/>
		<path class="st2" d="M555.5,144.2c4.1,0,9.1-1,14.9-3.1v22.4c-4.1,1.8-8.1,3.1-11.8,3.8c-3.7,0.8-8.1,1.1-13.2,1.1
			c-10.3,0-17.8-2.5-22.3-7.6c-4.6-5.1-6.8-12.8-6.8-23.3v-36.7h-10.8V88.4l13.7-9.7L527,60h20.1v17.8H569v23h-21.9v34.7
			C547.1,141.3,549.9,144.2,555.5,144.2z"/>
		<path class="st2" d="M629.2,168.5c-14.8,0-26.3-3.9-34.6-11.8s-12.3-19.1-12.3-33.7c0-15,3.8-26.6,11.4-34.6
			c7.6-8,18.4-12.1,32.5-12.1c13.4,0,23.8,3.5,31.1,10.5c7.3,7,11,17.1,11,30.2v13.7h-55c0.2,5,2,8.9,5.5,11.7s8.1,4.2,14,4.2
			c5.4,0,10.4-0.5,14.9-1.5c4.5-1,9.4-2.8,14.7-5.2v22.1c-4.8,2.5-9.8,4.2-14.9,5.1C642.4,168,636.3,168.5,629.2,168.5z M627.3,97.2
			c-3.6,0-6.6,1.1-9.1,3.4c-2.4,2.3-3.9,5.9-4.3,10.7h26.4c-0.1-4.3-1.3-7.7-3.7-10.3C634.4,98.5,631.3,97.2,627.3,97.2z"/>
	</g>
</g>
</svg>
